<svg xmlns="http://www.w3.org/2000/svg" width="24" height="24" viewBox="0 0 24 24"><g id="Layer_2" data-name="Layer 2"><g id="Layer_1-2" data-name="Layer 1"><path d="M21.62,12A9.63,9.63,0,0,1,12,21.62H2.38V2.38H12a9.61,9.61,0,0,1,3.57.68L13.78,5.81H16l1.24-1.89A9.62,9.62,0,0,1,21.62,12Z" fill="none" stroke="#fff" stroke-miterlimit="10" stroke-width="1.5"/><path d="M11,13.5l3.42-5.24H12.22L9.94,11.77,8.85,10.11A4.07,4.07,0,0,0,5.43,8.26L8.86,13.5,5.4,18.81H7.61l2.33-3.56L11.05,17a4,4,0,0,0,3.41,1.85Z" fill="none" stroke="#fff" stroke-miterlimit="10" stroke-width="1.5"/><path d="M21.62,12A9.63,9.63,0,0,1,12,21.62H2.38V2.38H12a9.61,9.61,0,0,1,3.57.68L13.78,5.81H16l1.24-1.89A9.62,9.62,0,0,1,21.62,12Z" fill="none" stroke="#fff" stroke-miterlimit="10" stroke-width="0.25"/><rect width="24" height="24" fill="none"/></g></g></svg>